<svg width="239" height="64" viewBox="0 0 239 64" fill="none" xmlns="http://www.w3.org/2000/svg">
<g clip-path="url(#clip0_44_17)">
<path d="M64 44.1574C63.849 44.928 63.7927 45.7331 63.5264 46.4627C63.1309 47.5482 62.6688 48.6285 62.089 49.6256C61.0343 51.4394 59.8618 53.184 58.7559 54.9696C56.6451 58.3782 53.4413 60.1075 49.609 60.736C43.4663 61.7434 37.7946 60.1754 32.4365 57.2762C28.0922 54.9261 24.3891 51.799 21.5642 47.721C19.2 44.3072 17.6077 40.6093 17.7421 36.3469C17.8087 34.2195 18.441 32.2688 19.5699 30.4704C20.7079 28.6566 21.8522 26.8467 22.9837 25.0291C24.7117 22.2528 27.2551 20.5786 30.3475 19.7222C35.4509 18.3091 40.4301 19.0234 45.2723 20.8832C50.7802 22.999 55.4765 26.2989 59.1603 30.9376C61.6845 34.1146 63.4739 37.6384 63.9143 41.7408C63.9245 41.8419 63.9719 41.9379 64.0026 42.0365V44.1574H64ZM25.3325 29.1456C24.8922 29.8176 24.4378 30.4819 24.0128 31.1629C22.9415 32.8794 22.5523 34.7558 22.7187 36.7629C22.9645 39.7069 24.1139 42.3181 25.8151 44.6694C30.3706 50.9683 36.5159 54.6995 44.2547 55.7043C46.8851 56.0461 49.4797 55.8042 51.9821 54.8122C54.6176 53.7677 56.1293 51.657 57.5155 49.193C55.712 50.272 53.865 50.5715 51.9475 50.5715C48.3699 50.5715 44.9869 49.6704 41.7383 48.2586C35.8541 45.6998 30.9824 41.8893 27.5418 36.4186C26.1658 34.2323 25.1763 31.8835 25.3312 29.1443L25.3325 29.1456ZM42.7943 28.5619C41.9738 28.5722 41.2429 29.3184 41.2544 30.1338C41.2659 30.9402 42.0314 31.6851 42.8339 31.6736C43.6442 31.6621 44.384 30.903 44.3725 30.0941C44.3623 29.2774 43.6147 28.5517 42.7943 28.5619ZM36.8832 27.5968C37.7178 27.5942 38.4205 26.871 38.4077 26.0301C38.3949 25.1917 37.6871 24.4966 36.8384 24.489C36.0743 24.4813 35.3114 25.239 35.305 26.0096C35.2973 26.8902 36.0039 27.5994 36.8845 27.5955L36.8832 27.5968ZM48.928 29.0394C48.0909 29.0368 47.3715 29.7485 47.3703 30.5779C47.369 31.3933 48.105 32.1395 48.9165 32.1446C49.7088 32.1498 50.4832 31.383 50.4858 30.5894C50.4896 29.7779 49.7485 29.0406 48.928 29.0394V29.0394ZM40.6656 38.0698C41.4951 38.057 42.1965 37.3184 42.1722 36.4838C42.1479 35.6531 41.4247 34.9683 40.5735 34.9709C39.8131 34.9734 39.0631 35.7376 39.0605 36.5133C39.0579 37.3862 39.7773 38.0826 40.6656 38.0685V38.0698ZM55.8298 39.319C56.6643 39.3165 57.3811 38.601 57.3773 37.7715C57.3747 36.9574 56.6272 36.2138 55.8183 36.2189C55.0183 36.2227 54.2579 36.9869 54.2605 37.7843C54.2643 38.5997 55.0029 39.3229 55.8298 39.3203V39.319ZM49.3888 38.8966C48.5479 38.9005 47.8477 39.607 47.8515 40.448C47.8554 41.2698 48.5914 42.0045 49.4067 42.0006C50.2029 41.9955 50.9683 41.2224 50.9619 40.4301C50.9555 39.6122 50.217 38.8915 49.3901 38.8966H49.3888Z" fill="#DC4A5B"/>
<path d="M0 18.3334C0.19584 17.4259 0.32 16.4941 0.60288 15.6147C1.50656 12.8102 3.3088 10.6329 5.58976 8.83583C9.17376 6.01215 13.312 4.45951 17.7779 3.75679C23.959 2.78399 29.984 3.34847 35.7504 5.87519C39.1603 7.36895 42.1235 9.47071 44.2304 12.6157C45.4093 14.3757 46.1094 16.3085 46.2387 18.4333C46.2464 18.5574 46.2477 18.6829 46.2451 18.807C46.2451 18.8429 46.2144 18.8787 46.176 18.9645C42.5958 17.6064 38.8966 16.8102 35.0374 16.8665C35.1962 15.8041 34.9645 15.2256 34.2579 14.8313C33.7178 14.5305 33.0842 14.6022 32.5722 15.0221C31.991 15.4969 31.8886 16.0665 32.2035 17.0457C31.0848 17.3478 29.9482 17.5936 28.8512 17.9609C25.5834 19.0566 22.9632 21.0048 21.1341 23.9603C20.1818 25.4976 19.2102 27.0221 18.2554 28.5581C18.0941 28.8179 17.9558 29.015 17.5795 28.9446C14.3475 28.3405 11.2435 27.3945 8.41728 25.6614C6.72256 24.6221 5.2672 23.3587 4.25472 21.3849C4.20992 21.8701 4.18176 22.1785 4.1536 22.4883C3.76192 26.8787 5.82144 30.0173 9.26848 32.439C11.0003 33.6563 12.896 34.5433 14.9082 35.191C15.1437 35.2665 15.3754 35.3574 15.5123 35.4061C15.6506 37.2646 15.7824 39.0553 15.9194 40.8985C10.4192 39.5213 5.45024 37.2633 2.06336 32.4249C1.0368 30.9581 0.39808 29.3209 0.12544 27.5456C0.10112 27.3843 0.04352 27.2269 0.00128 27.0681C0.00128 24.1574 0.00128 21.2467 0.00128 18.3347L0 18.3334ZM20.3827 11.1974C20.3866 10.3808 19.6531 9.63199 18.8416 9.62559C18.0531 9.61919 17.2736 10.3885 17.2672 11.1782C17.2608 11.9872 18.0032 12.7296 18.8211 12.7347C19.657 12.7385 20.3789 12.0294 20.3827 11.1987V11.1974ZM12.3891 14.1299C12.3789 13.3081 11.6326 12.5837 10.816 12.5977C10.016 12.6118 9.25952 13.3888 9.27488 14.1798C9.29152 14.9824 10.0608 15.7235 10.8646 15.7107C11.6851 15.6979 12.3994 14.9568 12.3891 14.1299ZM16.7744 18.4141C16.7872 17.5769 16.0883 16.8486 15.2576 16.8345C14.4384 16.8205 13.6858 17.5373 13.664 18.3526C13.6435 19.1449 14.3936 19.9232 15.1962 19.9424C16.0102 19.9616 16.7603 19.2345 16.7744 18.4141ZM24.6387 16.3379C25.4566 16.3353 26.1965 15.5955 26.1952 14.7827C26.1939 13.9763 25.4413 13.2275 24.6323 13.2275C23.8157 13.2275 23.0861 13.9648 23.0874 14.7891C23.0886 15.6185 23.8131 16.3405 24.6387 16.3379V16.3379ZM32.2957 9.48223C32.3046 8.65407 31.5917 7.92191 30.7661 7.91039C29.9443 7.89887 29.207 8.62079 29.1968 9.44511C29.1866 10.2733 29.897 10.9977 30.729 11.0067C31.5648 11.0157 32.2867 10.3142 32.2957 9.48223V9.48223Z" fill="#DC4A5B"/>
</g>
<path d="M91.0528 12.2368C93.2331 12.2368 95.1445 12.5504 96.7872 13.1776C98.4597 13.7749 99.296 14.5963 99.296 15.6416C99.296 16.6869 98.8928 17.9861 98.0864 19.5392C97.3099 21.0624 96.6528 21.824 96.1152 21.824C95.9659 21.824 95.7867 21.7493 95.5776 21.6C95.3984 21.4208 94.9504 21.2416 94.2336 21.0624C93.5467 20.8533 92.9493 20.7488 92.4416 20.7488C90.7093 20.7488 89.3056 21.3611 88.2304 22.5856C87.1851 23.8101 86.6624 25.6917 86.6624 28.2304C86.6624 30.7392 87.2 32.6059 88.2752 33.8304C89.3803 35.0549 90.7691 35.6672 92.4416 35.6672C93.1285 35.6672 93.8901 35.5776 94.7264 35.3984C95.5925 35.1893 96.2048 34.9056 96.5632 34.5472C96.6229 34.4875 96.7424 34.4576 96.9216 34.4576C97.1008 34.4576 97.4293 34.8011 97.9072 35.488C98.4149 36.1451 98.8779 37.0261 99.296 38.1312C99.7141 39.2064 99.9232 40.0427 99.9232 40.64C99.9232 41.8048 99.0272 42.7307 97.2352 43.4176C95.4432 44.1045 93.3227 44.448 90.8736 44.448C86.9312 44.448 83.6907 43.0592 81.152 40.2816C78.6133 37.504 77.344 33.5915 77.344 28.544C77.344 23.4667 78.6432 19.4795 81.2416 16.5824C83.8699 13.6853 87.1403 12.2368 91.0528 12.2368ZM111.909 43.3728C111.909 43.8507 110.491 44.0896 107.653 44.0896C104.786 44.0896 103.352 43.8656 103.352 43.4176V14.208C103.352 13.1627 103.905 12.64 105.01 12.64H113.567C121.422 12.64 125.349 15.7013 125.349 21.824C125.349 23.6757 124.991 25.3632 124.274 26.8864C123.557 28.3797 122.542 29.5744 121.228 30.4704L126.873 39.8784C126.634 40.5952 125.857 41.4165 124.543 42.3424C122.751 43.6267 121.273 44.2688 120.108 44.2688C118.943 44.2688 118.077 43.8507 117.509 43.0144L113.298 33.2032H111.909V43.3728ZM111.909 20.5696V27.2896H112.133C114.971 27.2896 116.389 26.1099 116.389 23.7504C116.389 22.6752 116.106 21.8837 115.538 21.376C115 20.8384 114.104 20.5696 112.85 20.5696H111.909ZM144.427 13.536C144.427 12.9387 146.04 12.64 149.265 12.64C152.521 12.64 154.149 12.9387 154.149 13.536V34.0992C154.149 37.1456 153.059 39.6395 150.878 41.5808C148.698 43.4923 145.681 44.448 141.829 44.448C138.006 44.448 134.885 43.4624 132.465 41.4912C130.076 39.4901 128.881 36.8021 128.881 33.4272V13.5808C128.881 12.9835 130.494 12.6848 133.72 12.6848C136.975 12.6848 138.603 12.9835 138.603 13.5808V33.7856C138.603 34.3829 138.917 34.8608 139.544 35.2192C140.201 35.5776 140.888 35.7568 141.605 35.7568C142.321 35.7568 142.964 35.5925 143.531 35.264C144.128 34.9355 144.427 34.4427 144.427 33.7856V13.536ZM182.459 43.0144C182.459 43.6416 181.055 43.9552 178.248 43.9552C175.44 43.9552 173.917 43.7312 173.678 43.2832L166.197 29.3056V43.2384C166.197 43.776 164.808 44.0448 162.03 44.0448C159.283 44.0448 157.909 43.776 157.909 43.2384V13.2672C157.909 12.8192 159.088 12.5952 161.448 12.5952C162.374 12.5952 163.449 12.6848 164.674 12.864C165.928 13.0133 166.69 13.312 166.958 13.76L174.126 27.5584V13.4912C174.126 12.9237 175.515 12.64 178.293 12.64C181.07 12.64 182.459 12.9237 182.459 13.4912V43.0144ZM199.772 12.2368C201.952 12.2368 203.863 12.5504 205.506 13.1776C207.178 13.7749 208.015 14.5963 208.015 15.6416C208.015 16.6869 207.612 17.9861 206.805 19.5392C206.029 21.0624 205.372 21.824 204.834 21.824C204.685 21.824 204.505 21.7493 204.296 21.6C204.117 21.4208 203.669 21.2416 202.952 21.0624C202.265 20.8533 201.668 20.7488 201.16 20.7488C199.428 20.7488 198.024 21.3611 196.949 22.5856C195.904 23.8101 195.381 25.6917 195.381 28.2304C195.381 30.7392 195.919 32.6059 196.994 33.8304C198.099 35.0549 199.488 35.6672 201.16 35.6672C201.847 35.6672 202.609 35.5776 203.445 35.3984C204.311 35.1893 204.924 34.9056 205.282 34.5472C205.342 34.4875 205.461 34.4576 205.64 34.4576C205.82 34.4576 206.148 34.8011 206.626 35.488C207.134 36.1451 207.597 37.0261 208.015 38.1312C208.433 39.2064 208.642 40.0427 208.642 40.64C208.642 41.8048 207.746 42.7307 205.954 43.4176C204.162 44.1045 202.041 44.448 199.592 44.448C195.65 44.448 192.409 43.0592 189.871 40.2816C187.332 37.504 186.063 33.5915 186.063 28.544C186.063 23.4667 187.362 19.4795 189.96 16.5824C192.589 13.6853 195.859 12.2368 199.772 12.2368ZM236.442 43.2384C236.442 43.7461 234.934 44 231.918 44C228.901 44 227.393 43.7461 227.393 43.2384V32.9344H221.121V43.2384C221.121 43.7461 219.613 44 216.596 44C213.58 44 212.071 43.7461 212.071 43.2384V13.536C212.071 12.9088 213.58 12.5952 216.596 12.5952C219.613 12.5952 221.121 12.9088 221.121 13.536V24.064H227.393V13.6256C227.393 13.2075 228.14 12.9088 229.633 12.7296C230.409 12.6699 231.171 12.64 231.918 12.64L234.202 12.7296C235.696 12.9088 236.442 13.2075 236.442 13.6256V43.2384Z" fill="#FAFBFB"/>
<defs>
<clipPath id="clip0_44_17">
<rect width="64" height="64" fill="white"/>
</clipPath>
</defs>
</svg>
